<svg width="60" height="60" viewBox="0 0 60 60" fill="none" xmlns="http://www.w3.org/2000/svg">
<g clip-path="url(#clip0_54_23)">
<path d="M60 0H0V60H60V0Z" fill="#C9B0D8"/>
<g clip-path="url(#clip1_54_23)">
<path d="M30.4673 21.3817V38.5824H21.8795V32.3594L20.7845 35.2464H20.1371L18.9917 32.3594V38.5824H10.4291V21.3817H18.9917L20.1371 24.6924H20.7845L21.8795 21.3817H30.4673ZM31.886 38.5824V21.3817H40.9968C43.8677 21.3817 45.9502 21.7965 47.2442 22.6263C48.5387 23.456 49.186 24.792 49.186 26.6342C49.186 27.2812 49.103 27.8785 48.937 28.4263C48.7711 28.974 48.6052 29.3639 48.4392 29.596L48.1903 29.945C48.7548 30.227 49.1531 30.9155 49.3853 32.0104C49.485 32.4589 49.5349 32.9735 49.5349 33.5543C49.5349 35.114 49.0577 36.3418 48.1032 37.2378C47.1493 38.1342 45.7181 38.5824 43.8097 38.5824H31.886ZM41.868 29.9694V28.6752C41.868 28.4594 41.8016 28.2893 41.6687 28.1651C41.5359 28.0404 41.3699 27.9781 41.1709 27.9781H40.4493V29.9694H41.868ZM42.5651 31.1896H40.4493V32.6083H42.5651C42.7474 32.6083 42.909 32.5378 43.05 32.3968C43.191 32.2558 43.2615 32.0855 43.2615 31.886C43.2615 31.6869 43.1953 31.521 43.063 31.3881C42.9301 31.2558 42.7642 31.1896 42.5651 31.1896Z" stroke="#E8F2F1" stroke-width="1.79856"/>
<path d="M30.4673 21.3817V38.5824H21.8795V32.3594L20.7845 35.2464H20.1371L18.9917 32.3594V38.5824H10.4291V21.3817H18.9917L20.1371 24.6924H20.7845L21.8795 21.3817H30.4673Z" fill="#E56D4B"/>
<path d="M31.886 38.5824V21.3817H40.9968C43.8678 21.3817 45.9503 21.7965 47.2443 22.6263C48.5387 23.456 49.186 24.792 49.186 26.6342C49.186 27.2812 49.103 27.8785 48.9371 28.4263C48.7711 28.974 48.6052 29.3639 48.4392 29.596L48.1903 29.945C48.7548 30.227 49.1531 30.9155 49.3853 32.0104C49.485 32.4589 49.5349 32.9735 49.5349 33.5543C49.5349 35.114 49.0577 36.3418 48.1033 37.2378C47.1493 38.1342 45.7181 38.5824 43.8097 38.5824H31.886ZM41.868 29.9694V28.6752C41.868 28.4594 41.8016 28.2893 41.6687 28.1651C41.5359 28.0404 41.3699 27.9781 41.1709 27.9781H40.4493V29.9694H41.868ZM42.5651 31.1896H40.4493V32.6083H42.5651C42.7474 32.6083 42.909 32.5378 43.05 32.3968C43.191 32.2558 43.2615 32.0855 43.2615 31.886C43.2615 31.6869 43.1953 31.521 43.063 31.3881C42.9301 31.2558 42.7642 31.1896 42.5651 31.1896Z" fill="#E56D4B"/>
</g>
</g>
<defs>
<clipPath id="clip0_54_23">
<rect width="60" height="60" rx="30" fill="white"/>
</clipPath>
<clipPath id="clip1_54_23">
<rect width="40" height="40" fill="white" transform="translate(10 10)"/>
</clipPath>
</defs>
</svg>
